<svg height="512pt" viewBox="0 0 512.001 512" width="512pt" xmlns="http://www.w3.org/2000/svg"><g fill="#898998"><path d="m144.167969 498.796875c8.917969-4.683594 15-14.027344 15-24.796875v-41h-30v41c0 10.769531 6.085937 20.113281 15 24.796875zm0 0"/><path d="m394.085938 498.796875c8.917968-4.683594 15-14.027344 15-24.796875v-41h-30v41c0 10.769531 6.085937 20.113281 15 24.796875zm0 0"/><path d="m482 182.292969c-11.046875 0-20-8.957031-20-20v-37.371094c0-11.046875 8.953125-20 20-20s20 8.953125 20 20v37.371094c0 11.042969-8.953125 20-20 20zm0 0"/><path d="m30 182.292969c11.046875 0 20-8.957031 20-20v-37.371094c0-11.046875-8.953125-20-20-20s-20 8.953125-20 20v37.371094c0 11.042969 8.953125 20 20 20zm0 0"/></g><path d="m404.9375 10h-181.914062c-18.238282 0-33.023438 14.785156-33.023438 33.023438v356.953124c0 18.238282 14.785156 33.023438 33.023438 33.023438h181.914062c18.238281 0 33.023438-14.785156 33.023438-33.023438v-356.953124c0-18.238282-14.785157-33.023438-33.023438-33.023438zm0 0" fill="#ff5d5d"/><path d="m182.5 90h-108.5v174.332031l42.429688 42.425781h108.5l-42.429688-42.425781zm0 0" fill="#fff"/><path d="m437.960938 90h-255.460938v174.332031l42.429688 42.425781h170.640624l42.429688-42.425781zm0 0" fill="#c9f3ff"/><path d="m160.042969 369.878906c0 11.046875-8.953125 20-20 20-11.042969 0-20-8.953125-20-20 0-11.042968 8.957031-20 20-20 11.046875 0 20 8.957032 20 20zm0 0" fill="#fff"/><path d="m391.957031 369.878906c0 11.046875-8.957031 20-20 20-11.046875 0-20-8.953125-20-20 0-11.042968 8.953125-20 20-20 11.042969 0 20 8.957032 20 20zm0 0" fill="#fff"/><path d="m204.082031 349.878906h104v40h-104zm0 0" fill="#ffc66c"/><path d="m190 50h132v40h-132zm0 0" fill="#fff"/><path d="m257.578125 20c2.632813 0 5.203125-1.070312 7.070313-2.929688 1.863281-1.859374 2.929687-4.441406 2.929687-7.070312s-1.066406-5.210938-2.929687-7.070312c-1.859376-1.859376-4.4375-2.929688-7.070313-2.929688-2.628906 0-5.207031 1.070312-7.066406 2.929688-1.863281 1.863281-2.933594 4.441406-2.933594 7.070312s1.070313 5.210938 2.933594 7.070312c1.859375 1.859376 4.4375 2.929688 7.066406 2.929688zm0 0"/><path d="m492 96.640625v-28.148437c0-15.167969-12.339844-27.507813-27.507812-27.507813h-17.363282c-4.257812-23.277344-24.679687-40.984375-49.167968-40.984375h-97.625c-5.523438 0-10 4.476562-10 10s4.476562 10 10 10h97.625c16.542968 0 30 13.457031 30 30v30h-95.960938v-30c0-5.523438-4.476562-10-10-10h-132c-5.523438 0-10 4.476562-10 10v30h-95.867188v-30c0-16.542969 13.457032-30 30-30h100.367188c5.523438 0 10-4.476562 10-10s-4.476562-10-10-10h-100.367188c-24.492187 0-44.914062 17.707031-49.171874 40.984375h-17.453126c-15.167968 0-27.507812 12.339844-27.507812 27.507813v28.148437c-11.640625 4.128906-20 15.246094-20 28.28125v37.371094c0 16.539062 13.457031 30 30 30s30-13.460938 30-30v-37.371094c0-13.035156-8.359375-24.152344-20-28.28125v-28.148437c0-4.140626 3.367188-7.507813 7.507812-7.507813h16.625v332.015625c0 20.085938 11.910157 37.433594 29.035157 45.375v35.625c0 20.953125 17.046875 38 38 38s38-17.046875 38-38v-31h173.917969v31c0 20.953125 17.046874 38 38 38 20.953124 0 38-17.046875 38-38v-35.695312c17.039062-7.980469 28.875-25.28125 28.875-45.304688v-332.015625h16.53125c4.140624 0 7.507812 3.367187 7.507812 7.507813v28.148437c-11.636719 4.128906-20 15.246094-20 28.28125v37.371094c0 16.539062 13.460938 30 30 30 16.542969 0 30-13.460938 30-30v-37.371094c0-13.035156-8.359375-24.152344-20-28.28125zm-452 65.652344c0 5.511719-4.484375 10-10 10s-10-4.488281-10-10v-37.371094c0-5.511719 4.484375-10 10-10s10 4.488281 10 10zm163.28125 72.308593c-3.902344-3.902343-10.234375-3.90625-14.140625 0l-62.160156 62.15625h-6.410157l-30.925781-30.925781 156.359375-156.359375v187.285156h-90.738281l48.015625-48.015624c3.90625-3.90625 3.90625-10.238282 0-14.140626zm123.363281-134.601562-31.152343 31.152344c-3.902344 3.902344-3.902344 10.234375 0 14.140625 1.953124 1.953125 4.511718 2.929687 7.070312 2.929687s5.121094-.976562 7.074219-2.929687l45.292969-45.292969h58.839843l-147.765625 147.765625v-147.765625zm-60.640625 176.050781 161.957032-161.957031v146.132812l-36.53125 36.53125h-125.425782zm-66.003906-216.050781h112v20h-112zm27.191406 40-143.058594 143.058594v-143.058594zm-78.023437 374c0 9.925781-8.074219 18-18 18s-18-8.074219-18-18v-31h36zm249.917969-31v31c0 9.925781-8.074219 18-18 18-9.925782 0-18-8.074219-18-18v-31zm-1.125-20h-283.828126c-16.542968 0-30-13.457031-30-30v-104.394531l25.226563 25.226562c1.875 1.875 4.417969 2.929688 7.070313 2.929688h279.140624c2.652344 0 5.195313-1.054688 7.070313-2.929688l25.320313-25.320312v104.488281c0 16.542969-13.457032 30-30 30zm94.039062-260.707031c0 5.511719-4.484375 10-10 10s-10-4.488281-10-10v-37.371094c0-5.511719 4.484375-10 10-10s10 4.488281 10 10zm0 0"/><path d="m140.042969 339.878906c-16.539063 0-30 13.460938-30 30 0 16.542969 13.460937 30 30 30 16.542969 0 30-13.457031 30-30 0-16.539062-13.457031-30-30-30zm0 40c-5.511719 0-10-4.484375-10-10 0-5.511718 4.488281-10 10-10 5.515625 0 10 4.488282 10 10 0 5.515625-4.484375 10-10 10zm0 0"/><path d="m371.957031 339.878906c-16.542969 0-30 13.460938-30 30 0 16.542969 13.457031 30 30 30 16.539063 0 30-13.457031 30-30 0-16.539062-13.460937-30-30-30zm0 40c-5.515625 0-10-4.484375-10-10 0-5.511718 4.484375-10 10-10 5.511719 0 10 4.488282 10 10 0 5.515625-4.488281 10-10 10zm0 0"/><path d="m308.082031 339.878906h-104c-5.523437 0-10 4.480469-10 10v40c0 5.523438 4.476563 10 10 10h104c5.523438 0 10-4.476562 10-10v-40c0-5.519531-4.476562-10-10-10zm-10 40h-84v-20h84zm0 0"/></svg>