<?xml version="1.0" encoding="iso-8859-1"?>
<!-- Generator: Adobe Illustrator 19.0.0, SVG Export Plug-In . SVG Version: 6.00 Build 0)  -->
<svg version="1.1" id="Capa_1" xmlns="http://www.w3.org/2000/svg" xmlns:xlink="http://www.w3.org/1999/xlink" x="0px" y="0px"
	 viewBox="0 0 512.001 512.001" style="enable-background:new 0 0 512.001 512.001;" xml:space="preserve">
<rect x="177.501" y="90.021" style="fill:#AAAAA0;" width="157" height="40"/>
<rect x="136.001" y="130.021" style="fill:#E6E6E6;" width="240" height="40"/>
<rect x="236.001" y="10.021" style="fill:#F03C32;" width="40" height="80"/>
<g>
	<polygon style="fill:#5AD2E6;" points="106.001,170.025 106.001,260.912 256.001,170.025 	"/>
	<polygon style="fill:#5AD2E6;" points="406.001,170.025 256.001,170.025 406.001,260.912 	"/>
</g>
<g>
	<path style="fill:#6E6E6E;" d="M53.001,293.025l58.357,196.345c17.73,6.861,37.678,5.794,54.679-3.154l16.634-8.755
		c18.459-9.715,40.419-10.155,59.253-1.187l14.077,6.703V290.025v-120L53.001,293.025z"/>
	<path style="fill:#6E6E6E;" d="M256.001,170.025v120v192.952l10.85,5.167c18.396,8.76,39.803,8.554,58.027-0.558l21.538-10.769
		c18.273-9.136,39.713-9.286,58.105-0.494l54.48-183.298L256.001,170.025z"/>
</g>
<path d="M326.661,272.425c0,0,64.64,39.886,64.68,39.91c4.647,2.867,10.903,1.392,13.76-3.259c2.857-4.652,1.401-10.893-3.25-13.76
	c0,0-64.599-39.86-64.68-39.91c-4.649-2.869-10.91-1.356-13.77,3.259C320.535,263.29,322.056,269.586,326.661,272.425z"/>
<path d="M292.665,251.355c1.539,0.975,3.333,1.56,5.196,1.56c3.499,0,6.689-1.769,8.519-4.748
	c3.898-6.346-1.002-15.251-8.497-15.252c-6.387-0.001-11.203,6.079-9.743,12.295C288.721,247.686,290.423,249.935,292.665,251.355z"
	/>
<path d="M121.603,313.852c1.882,0.053,3.753-0.38,5.318-1.367c0,0,64.245-40.521,64.29-40.55c4.624-2.916,6.028-9.159,3.122-13.787
	c-2.821-4.493-9.325-5.945-13.792-3.123c0,0-64.182,40.472-64.29,40.54c-4.625,2.916-6.036,9.164-3.123,13.785
	C114.879,312.129,118.258,313.758,121.603,313.852z"/>
<path d="M219.711,252.145c4.635,0,8.727-3.263,9.75-7.791c1.401-6.2-3.433-12.209-9.77-12.209c-4.644,0-8.713,3.264-9.74,7.788
	C208.552,246.096,213.431,252.145,219.711,252.145z"/>
<path d="M509.548,455.464c-3.624-4.168-9.94-4.608-14.108-0.984c-10.663,9.271-20.531,18.883-34.522,22.75
	c-15.553,4.298-30.334,0.906-44.41-6.132l52.079-175.224c1.296-4.359-0.514-9.044-4.403-11.401l-48.183-29.195v-85.253
	c0-5.522-4.477-10-10-10h-20v-30c0-5.522-4.477-10-10-10h-31.5v-30c0-5.522-4.477-10-10-10h-48.5v-70c0-5.522-4.477-10-10-10h-40
	c-5.523,0-10,4.478-10,10v70h-48.5c-5.523,0-10,4.478-10,10v30h-31.5c-5.523,0-10,4.478-10,10v30h-20c-5.523,0-10,4.478-10,10
	v85.253l-48.182,29.194c-3.89,2.357-5.699,7.042-4.403,11.401c0,0,51.951,174.79,51.973,174.866
	c-0.887-2.984-16.889-4.949-19.718-5.315c-29.117-3.768-51.258,10.818-72.232,29.055c-4.168,3.624-4.608,9.939-0.985,14.107
	c3.459,3.978,9.896,4.646,14.107,0.985c21.608-18.784,45.969-33.103,74.559-18.806c25.864,12.931,52.636,18.476,79.575,4.3
	c21.722-11.434,42.684-21.307,66.93-9.763l24.927,11.87c21.326,10.156,45.674,9.922,66.799-0.642
	c13.018-6.509,26.249-15.171,41.119-16.193c14.576-1.001,28.66,4.426,41.467,10.835c16.919,8.46,36.726,10.15,54.894,4.971
	c16.735-4.771,28.914-15.429,41.731-26.573C512.731,465.947,513.171,459.632,509.548,455.464z M398.023,463.084
	c0.111-3.094-28.039-3.066-29.925-2.867c-17.358,1.836-32.374,10.767-47.692,18.426c-18.096,9.048-36.716,6.447-54.405-1.98V187.777
	l181.215,109.8C447.216,297.577,398.024,463.085,398.023,463.084z M396.001,243.16l-104.198-63.135h104.198V243.16z M246.001,20.025
	h20v60h-20V20.025z M187.501,100.025h137v20h-137V100.025z M146.001,140.025h220v20h-220V140.025z M116.001,180.025h104.198
	L116.001,243.16V180.025z M246.001,187.777c0,0,0,279.352,0,279.363c0.002-1.777-14.255-5.055-16.12-5.459
	c-17.404-3.767-36.088-1.375-51.866,6.93c-11.448,6.025-22.493,13.054-35.586,14.74c-0.024,0.003-0.048,0.006-0.072,0.009
	c-7.65,0.93-15.48,0.367-22.884-1.792L64.786,297.577L246.001,187.777z"/>
<g>
</g>
<g>
</g>
<g>
</g>
<g>
</g>
<g>
</g>
<g>
</g>
<g>
</g>
<g>
</g>
<g>
</g>
<g>
</g>
<g>
</g>
<g>
</g>
<g>
</g>
<g>
</g>
<g>
</g>
</svg>
