<?xml version="1.0" encoding="iso-8859-1"?>
<!-- Generator: Adobe Illustrator 19.0.0, SVG Export Plug-In . SVG Version: 6.00 Build 0)  -->
<svg version="1.1" id="Capa_1" xmlns="http://www.w3.org/2000/svg" xmlns:xlink="http://www.w3.org/1999/xlink" x="0px" y="0px"
	 viewBox="0 0 512 512" style="enable-background:new 0 0 512 512;" xml:space="preserve">
<path style="fill:#57555C;" d="M374.495,416l82.32,86h-70.5c-40.898-56.44-27.463-37.897-62.31-86H374.495z"/>
<path style="fill:#FD6244;" d="M436.055,376V79.27c0-14.32-5.06-27.64-13.63-38.08c-8.57-10.43-20.65-17.99-34.7-20.77
	c-24.021-4.766-48.321-7.904-72.738-9.4c-24.649,1.524-48.638,4.72-71.702,9.33c-28.04,5.61-48.23,30.24-48.23,58.84V376
	c0,22.09,17.91,40,40,40h22.45h50.49h16.01h50.49h21.56C418.145,416,436.055,398.09,436.055,376z"/>
<path style="fill:#FFFFFF;" d="M362.055,336c0-11.912,6.941-22.202,17-27.045c-3.933-1.894-8.342-2.955-13-2.955
	c-16.57,0-30,13.43-30,30s13.43,30,30,30c4.658,0,9.067-1.061,13-2.955C368.996,358.202,362.055,347.912,362.055,336z"/>
<path style="fill:#FED42D;" d="M396.055,336c0-11.912-6.941-22.202-17-27.045c-10.059,4.843-17,15.133-17,27.045
	s6.941,22.202,17,27.045C389.114,358.202,396.055,347.912,396.055,336z"/>
<path style="fill:#E3E3E3;" d="M195.055,90v166c80.062,0,192.941,0,201,0V90C387.981,90,275.112,90,195.055,90z"/>
<path style="fill:#57555C;" d="M188.995,416c-35.006,48.312-25.386,35.035-62.31,86h-71.5l83.32-86H188.995z"/>
<path style="fill:#FED42D;" d="M158.055,308.503c-10.594,4.63-18,15.195-18,27.497s7.406,22.867,18,27.497
	c10.594-4.63,18-15.195,18-27.497S168.649,313.133,158.055,308.503z"/>
<path d="M336.055,60c5.52,0,10-4.48,10-10s-4.48-10-10-10s-10,4.48-10,10S330.535,60,336.055,60z"/>
<path d="M176.055,60c5.52,0,10-4.48,10-10s-4.48-10-10-10s-10,4.48-10,10S170.535,60,176.055,60z"/>
<path d="M397.866,425.954c26.733-0.958,48.189-22.991,48.189-49.954V79.27c0-16.157-5.647-31.935-15.903-44.428
	c-10.263-12.49-24.641-21.097-40.48-24.23C354.18,3.57,317.842,0,281.666,0h-52.83c-34.407,0-70.246,3.296-106.512,10.544
	C89.719,17.067,66.055,45.938,66.055,79.19V376c0,27.19,21.82,49.365,48.867,49.971l-66.919,69.071
	c-2.795,2.884-3.593,7.16-2.026,10.857c1.565,3.698,5.192,6.101,9.208,6.101h71.5c3.206,0,6.217-1.537,8.098-4.133L165.117,466
	h182.766l30.334,41.868c1.881,2.595,4.893,4.132,8.098,4.132h70.5c4.005,0,7.623-2.39,9.196-6.072
	c1.573-3.684,0.797-7.949-1.973-10.843L397.866,425.954z M86.055,376V79.19c0-23.753,16.903-44.375,40.19-49.035
	C158.888,23.631,193.381,20,228.835,20h52.83c34.873,0,69.901,3.441,104.118,10.229c11.314,2.239,21.584,8.387,28.912,17.306
	c7.325,8.923,11.359,20.193,11.359,31.734V376c0,16.542-13.458,30-30,30h-280C99.513,406,86.055,392.542,86.055,376z M121.582,492
	H78.797l63.943-66h26.662L121.582,492z M179.608,446l14.491-20h124.803l14.49,20H179.608z M391.418,492L343.6,426h26.625l63.175,66
	H391.418z"/>
<path d="M116.055,266h280c5.522,0,10-4.478,10-10V90c0-5.522-4.478-10-10-10h-280c-5.522,0-10,4.478-10,10v166
	C106.055,261.522,110.533,266,116.055,266z M386.055,246h-120V100h120V246z M126.055,100h120v146h-120
	C126.055,246,126.055,100,126.055,100z"/>
<path d="M216.055,60h80c5.522,0,10-4.478,10-10s-4.478-10-10-10h-80c-5.522,0-10,4.478-10,10S210.533,60,216.055,60z"/>
<path d="M366.055,296c-22.056,0-40,17.944-40,40s17.944,40,40,40s40-17.944,40-40S388.111,296,366.055,296z M366.055,356
	c-11.028,0-20-8.972-20-20s8.972-20,20-20s20,8.972,20,20S377.083,356,366.055,356z"/>
<path d="M146.055,376c22.056,0,40-17.944,40-40s-17.944-40-40-40s-40,17.944-40,40S124,376,146.055,376z M146.055,316
	c11.028,0,20,8.972,20,20s-8.972,20-20,20s-20-8.972-20-20S135.027,316,146.055,316z"/>
<path d="M296.055,306h-80c-5.522,0-10,4.478-10,10s4.478,10,10,10h80c5.522,0,10-4.478,10-10S301.578,306,296.055,306z"/>
<path d="M296.055,346h-80c-5.522,0-10,4.478-10,10s4.478,10,10,10h80c5.522,0,10-4.478,10-10S301.578,346,296.055,346z"/>
<g>
</g>
<g>
</g>
<g>
</g>
<g>
</g>
<g>
</g>
<g>
</g>
<g>
</g>
<g>
</g>
<g>
</g>
<g>
</g>
<g>
</g>
<g>
</g>
<g>
</g>
<g>
</g>
<g>
</g>
</svg>
