<svg version="1" xmlns="http://www.w3.org/2000/svg" width="400" height="400" viewBox="0 0 300.000000 300.000000"><path d="M136.4 15c-27.2 4.9-50 22.2-62.8 47.7-6.9 13.9-10.2 35.3-7.6 51 4.2 26 20.3 64.2 46 109.3 11.2 19.6 31.7 52.8 35.6 57.7l2 2.5 8-12.3c34.3-52.9 61.3-105.6 70.8-138.4 5.8-19.9 6.8-32.9 3.7-48-6.9-33.6-29.6-58.5-61.4-67.6-8.3-2.3-26.4-3.3-34.3-1.9zm28.5 32.2c7.7 2.6 13.3 6.1 19.1 11.8 9.7 9.8 14.1 20.6 14.1 34.5 0 13.9-4.4 24.7-14.1 34.5-9.6 9.5-20.5 14.1-34.2 14.2-14 0-25.1-4.5-34.9-14.3a48.467 48.467 0 0 1 0-68.8c13.4-13.4 32.5-18 50-11.9z"/></svg>